<?xml version="1.0" encoding="utf-8"?>
<!-- Generator: Adobe Illustrator 27.3.1, SVG Export Plug-In . SVG Version: 6.00 Build 0)  -->
<svg version="1.1" id="Layer_1" xmlns="http://www.w3.org/2000/svg" xmlns:xlink="http://www.w3.org/1999/xlink" x="0px" y="0px"
	 viewBox="0 0 600 400" style="enable-background:new 0 0 600 400;" xml:space="preserve">
<style type="text/css">
	.st0{fill:#DF2581;}
	.st1{fill:#FFFFFF;}
</style>
<circle class="st0" cx="300" cy="200" r="187"/>
<path class="st1" d="M181,143.3c3.7,6.1,7.3,12.1,11,18c5.6,9,11.7,17.6,19.1,25.2c7.9,8.1,16.9,14.4,27.5,18.5
	c0.5,0.2,1,0.3,1.7,0.6c6-31.4-3.8-59.4-17.7-86.6c4.9-5.3,11-7.2,17.9-7.3c0.5,0,1.3,0.9,1.5,1.5c3.9,11.3,7.7,22.7,11.5,34
	c3.9,11.6,9.7,22,19.3,30c0.6,0.5,1.2,0.9,1.7,1.4c13.9-9,18.5-20.3,17.2-32.7c-0.5-4.7-0.6-9.6-0.6-14.4c-0.1-9.7,0-19.3,0-29.1
	c0-0.7,0-1.5,0-2.4c6.9,0,13.7,0,20.7,0c0.2,3.6,0.6,7.3,0.6,10.9c-0.2,13.5-0.4,27-0.9,40.5c-0.2,8,2.7,14.5,8.3,19.9
	c2.7,2.6,5.6,5,8.5,7.6c4.9-3.7,8.8-8,12.2-12.9c6.2-8.8,9.9-18.8,13.2-28.9c2.6-8.2,5.2-16.6,7.9-24.8c0.2-0.6,0.4-1,0.7-1.8
	c6.3,2.1,12.4,4.2,18.8,6.3c-2.2,5.2-4.3,10.2-6.5,15.1c-4.7,11.1-9.2,22.2-11.6,34.1c-2.5,12.1-2.6,24.1,0.8,36.3
	c0.5-0.1,1-0.2,1.4-0.4c12.2-4.9,22.3-12.5,29.7-23.5c7.4-11,14.9-22,22.3-33.1c0.5-0.7,1-1.5,1.6-2.4c5.5,3.8,10.8,7.5,16.3,11.3
	c-4.7,6.4-9.3,12.7-13.9,19c-2.9,3.9-5.8,7.8-8.7,11.7c-7.6,9.9-12.6,20.9-14.7,33.2c-3,17.7-10.5,33.2-21.7,47.3
	c-8.8,11.1-17.4,22.3-26,33.5c-1,1.3-1.8,1.4-3.3,0.9c-15.5-5.3-31.5-8.1-47.9-8.1c-15.8,0-31.3,2.6-46.3,7.8
	c-1.8,0.6-2.8,0.3-4-1.2c-10-12.8-20.1-25.4-29.9-38.4c-9.4-12.3-15-26.3-17.7-41.7c-2.2-12.9-7.6-24.4-15.5-34.7
	c-6.8-9-13.5-18.2-20.3-27.3c-0.8-1-0.7-1.7,0.1-2.6C169.6,148.7,174.9,145.6,181,143.3z"/>
</svg>
